<svg xmlns="http://www.w3.org/2000/svg" width="1100" height="1100"><rect width="1100" height="1100" x="0" y="0" fill="#ac8163" id="background"/><g transform="translate(50,50)" id="visualization"><g id="axis"><g transform="translate(0,1000)" fill="none" font-size="10" font-family="sans-serif" text-anchor="middle"><path class="domain" stroke="currentColor" d="M0.5,6V0.5H1000.5V6"/><g class="tick" opacity="1" transform="translate(0.5,0)"><line stroke="currentColor" y2="6"/><text fill="currentColor" y="9" dy="0.71em">1,985</text></g><g class="tick" opacity="1" transform="translate(125.5,0)"><line stroke="currentColor" y2="6"/><text fill="currentColor" y="9" dy="0.71em">1,990</text></g><g class="tick" opacity="1" transform="translate(250.5,0)"><line stroke="currentColor" y2="6"/><text fill="currentColor" y="9" dy="0.71em">1,995</text></g><g class="tick" opacity="1" transform="translate(375.5,0)"><line stroke="currentColor" y2="6"/><text fill="currentColor" y="9" dy="0.71em">2,000</text></g><g class="tick" opacity="1" transform="translate(500.5,0)"><line stroke="currentColor" y2="6"/><text fill="currentColor" y="9" dy="0.71em">2,005</text></g><g class="tick" opacity="1" transform="translate(625.5,0)"><line stroke="currentColor" y2="6"/><text fill="currentColor" y="9" dy="0.71em">2,010</text></g><g class="tick" opacity="1" transform="translate(750.5,0)"><line stroke="currentColor" y2="6"/><text fill="currentColor" y="9" dy="0.71em">2,015</text></g><g class="tick" opacity="1" transform="translate(875.5,0)"><line stroke="currentColor" y2="6"/><text fill="currentColor" y="9" dy="0.71em">2,020</text></g><g class="tick" opacity="1" transform="translate(1000.5,0)"><line stroke="currentColor" y2="6"/><text fill="currentColor" y="9" dy="0.71em">2,025</text></g></g></g><g id="viz"><g id="10KDunkin" transform="translate(0,0)"><text x="796" y="6.097560975609756" text-anchor="end" dominant-baseline="middle" style="font-family: Arial, sans-serif; font-size: 10px; fill: black; font-weight: normal;">10KDunkin</text><rect x="800" y="0" width="125" height="12.195121951219512" fill="#ffffff"/><line x1="0" y1="0" x2="1000" y2="0" style="stroke: rgb(204, 204, 204);"/></g><g id="12 Gauge" transform="translate(0,12.195121951219512)"><text x="221" y="6.097560975609756" text-anchor="end" dominant-baseline="middle" style="font-family: Arial, sans-serif; font-size: 10px; fill: black; font-weight: normal;">12 Gauge</text><rect x="225" y="0" width="25" height="12.195121951219512" fill="#ffffff"/><line x1="0" y1="0" x2="1000" y2="0" style="stroke: rgb(204, 204, 204);"/></g><g id="1504 Mutebaby" transform="translate(0,24.390243902439025)"><text x="896" y="6.097560975609756" text-anchor="end" dominant-baseline="middle" style="font-family: Arial, sans-serif; font-size: 10px; fill: black; font-weight: normal;">1504 Mutebaby</text><rect x="900" y="0" width="50" height="12.195121951219512" fill="#ffffff"/><line x1="0" y1="0" x2="1000" y2="0" style="stroke: rgb(204, 204, 204);"/></g><g id="2 Chainz" transform="translate(0,36.58536585365854)"><text x="546" y="6.097560975609756" text-anchor="end" dominant-baseline="middle" style="font-family: Arial, sans-serif; font-size: 10px; fill: black; font-weight: normal;">2 Chainz</text><rect x="550" y="0" width="400" height="12.195121951219512" fill="#ffffff"/><line x1="0" y1="0" x2="1000" y2="0" style="stroke: rgb(204, 204, 204);"/></g><g id="21 Lil Harold" transform="translate(0,48.78048780487805)"><text x="871" y="6.097560975609756" text-anchor="end" dominant-baseline="middle" style="font-family: Arial, sans-serif; font-size: 10px; fill: black; font-weight: normal;">21 Lil Harold</text><rect x="875" y="0" width="75" height="12.195121951219512" fill="#ffffff"/><line x1="0" y1="0" x2="1000" y2="0" style="stroke: rgb(204, 204, 204);"/></g><g id="21 Savage" transform="translate(0,60.97560975609756)"><text x="746" y="6.097560975609756" text-anchor="end" dominant-baseline="middle" style="font-family: Arial, sans-serif; font-size: 10px; fill: black; font-weight: normal;">21 Savage</text><rect x="750" y="0" width="175" height="12.195121951219512" fill="#ffffff"/><line x1="0" y1="0" x2="1000" y2="0" style="stroke: rgb(204, 204, 204);"/></g><g id="2Feet Bino2019" transform="translate(0,73.17073170731707)"><text x="896" y="6.097560975609756" text-anchor="end" dominant-baseline="middle" style="font-family: Arial, sans-serif; font-size: 10px; fill: black; font-weight: normal;">2Feet Bino2019</text><rect x="900" y="0" width="1" height="12.195121951219512" fill="#ffffff"/><line x1="0" y1="0" x2="1000" y2="0" style="stroke: rgb(204, 204, 204);"/></g><g id="4L Quan" transform="translate(0,85.3658536585366)"><text x="946" y="6.097560975609756" text-anchor="end" dominant-baseline="middle" style="font-family: Arial, sans-serif; font-size: 10px; fill: black; font-weight: normal;">4L Quan</text><rect x="950" y="0" width="1" height="12.195121951219512" fill="#ffffff"/><line x1="0" y1="0" x2="1000" y2="0" style="stroke: rgb(204, 204, 204);"/></g><g id="645AR" transform="translate(0,97.5609756097561)"><text x="796" y="6.097560975609756" text-anchor="end" dominant-baseline="middle" style="font-family: Arial, sans-serif; font-size: 10px; fill: black; font-weight: normal;">645AR</text><rect x="800" y="0" width="125" height="12.195121951219512" fill="#ffffff"/><line x1="0" y1="0" x2="1000" y2="0" style="stroke: rgb(204, 204, 204);"/></g><g id="6lack" transform="translate(0,109.7560975609756)"><text x="771" y="6.097560975609756" text-anchor="end" dominant-baseline="middle" style="font-family: Arial, sans-serif; font-size: 10px; fill: black; font-weight: normal;">6lack</text><rect x="775" y="0" width="175" height="12.195121951219512" fill="#ffffff"/><line x1="0" y1="0" x2="1000" y2="0" style="stroke: rgb(204, 204, 204);"/></g><g id="Alley Boy" transform="translate(0,121.95121951219512)"><text x="646" y="6.097560975609756" text-anchor="end" dominant-baseline="middle" style="font-family: Arial, sans-serif; font-size: 10px; fill: black; font-weight: normal;">Alley Boy</text><rect x="650" y="0" width="200" height="12.195121951219512" fill="#ffffff"/><line x1="0" y1="0" x2="1000" y2="0" style="stroke: rgb(204, 204, 204);"/></g><g id="André 3000" transform="translate(0,134.14634146341464)"><text x="446" y="6.097560975609756" text-anchor="end" dominant-baseline="middle" style="font-family: Arial, sans-serif; font-size: 10px; fill: black; font-weight: normal;">André 3000</text><rect x="450" y="0" width="500" height="12.195121951219512" fill="#ffffff"/><line x1="0" y1="0" x2="1000" y2="0" style="stroke: rgb(204, 204, 204);"/></g><g id="Atl Smook" transform="translate(0,146.34146341463415)"><text x="771" y="6.097560975609756" text-anchor="end" dominant-baseline="middle" style="font-family: Arial, sans-serif; font-size: 10px; fill: black; font-weight: normal;">Atl Smook</text><rect x="775" y="0" width="175" height="12.195121951219512" fill="#ffffff"/><line x1="0" y1="0" x2="1000" y2="0" style="stroke: rgb(204, 204, 204);"/></g><g id="B.o.B." transform="translate(0,158.53658536585365)"><text x="546" y="6.097560975609756" text-anchor="end" dominant-baseline="middle" style="font-family: Arial, sans-serif; font-size: 10px; fill: black; font-weight: normal;">B.o.B.</text><rect x="550" y="0" width="400" height="12.195121951219512" fill="#ffffff"/><line x1="0" y1="0" x2="1000" y2="0" style="stroke: rgb(204, 204, 204);"/></g><g id="Baby D" transform="translate(0,170.7317073170732)"><text x="271" y="6.097560975609756" text-anchor="end" dominant-baseline="middle" style="font-family: Arial, sans-serif; font-size: 10px; fill: black; font-weight: normal;">Baby D</text><rect x="275" y="0" width="300" height="12.195121951219512" fill="#ffffff"/><line x1="0" y1="0" x2="1000" y2="0" style="stroke: rgb(204, 204, 204);"/></g><g id="BabyDrill" transform="translate(0,182.9268292682927)"><text x="921" y="6.097560975609756" text-anchor="end" dominant-baseline="middle" style="font-family: Arial, sans-serif; font-size: 10px; fill: black; font-weight: normal;">BabyDrill</text><rect x="925" y="0" width="25" height="12.195121951219512" fill="#ffffff"/><line x1="0" y1="0" x2="1000" y2="0" style="stroke: rgb(204, 204, 204);"/></g><g id="Baby Tate" transform="translate(0,195.1219512195122)"><text x="746" y="6.097560975609756" text-anchor="end" dominant-baseline="middle" style="font-family: Arial, sans-serif; font-size: 10px; fill: black; font-weight: normal;">Baby Tate</text><rect x="750" y="0" width="200" height="12.195121951219512" fill="#ffffff"/><line x1="0" y1="0" x2="1000" y2="0" style="stroke: rgb(204, 204, 204);"/></g><g id="Bankroll Fresh" transform="translate(0,207.3170731707317)"><text x="671" y="6.097560975609756" text-anchor="end" dominant-baseline="middle" style="font-family: Arial, sans-serif; font-size: 10px; fill: black; font-weight: normal;">Bankroll Fresh</text><rect x="675" y="0" width="200" height="12.195121951219512" fill="#ffffff"/><line x1="0" y1="0" x2="1000" y2="0" style="stroke: rgb(204, 204, 204);"/></g><g id="Bermuda Yae" transform="translate(0,219.5121951219512)"><text x="846" y="6.097560975609756" text-anchor="end" dominant-baseline="middle" style="font-family: Arial, sans-serif; font-size: 10px; fill: black; font-weight: normal;">Bermuda Yae</text><rect x="850" y="0" width="50" height="12.195121951219512" fill="#ffffff"/><line x1="0" y1="0" x2="1000" y2="0" style="stroke: rgb(204, 204, 204);"/></g><g id="Big Gipp" transform="translate(0,231.70731707317074)"><text x="446" y="6.097560975609756" text-anchor="end" dominant-baseline="middle" style="font-family: Arial, sans-serif; font-size: 10px; fill: black; font-weight: normal;">Big Gipp</text><rect x="450" y="0" width="500" height="12.195121951219512" fill="#ffffff"/><line x1="0" y1="0" x2="1000" y2="0" style="stroke: rgb(204, 204, 204);"/></g><g id="Bktherula" transform="translate(0,243.90243902439025)"><text x="871" y="6.097560975609756" text-anchor="end" dominant-baseline="middle" style="font-family: Arial, sans-serif; font-size: 10px; fill: black; font-weight: normal;">Bktherula</text><rect x="875" y="0" width="75" height="12.195121951219512" fill="#ffffff"/><line x1="0" y1="0" x2="1000" y2="0" style="stroke: rgb(204, 204, 204);"/></g><g id="Big Boi" transform="translate(0,256.0975609756098)"><text x="446" y="6.097560975609756" text-anchor="end" dominant-baseline="middle" style="font-family: Arial, sans-serif; font-size: 10px; fill: black; font-weight: normal;">Big Boi</text><rect x="450" y="0" width="450" height="12.195121951219512" fill="#ffffff"/><line x1="0" y1="0" x2="1000" y2="0" style="stroke: rgb(204, 204, 204);"/></g><g id="Bslime" transform="translate(0,268.2926829268293)"><text x="846" y="6.097560975609756" text-anchor="end" dominant-baseline="middle" style="font-family: Arial, sans-serif; font-size: 10px; fill: black; font-weight: normal;">Bslime</text><rect x="850" y="0" width="100" height="12.195121951219512" fill="#ffffff"/><line x1="0" y1="0" x2="1000" y2="0" style="stroke: rgb(204, 204, 204);"/></g><g id="CashCache!" transform="translate(0,280.4878048780488)"><text x="871" y="6.097560975609756" text-anchor="end" dominant-baseline="middle" style="font-family: Arial, sans-serif; font-size: 10px; fill: black; font-weight: normal;">CashCache!</text><rect x="875" y="0" width="25" height="12.195121951219512" fill="#ffffff"/><line x1="0" y1="0" x2="1000" y2="0" style="stroke: rgb(204, 204, 204);"/></g><g id="Cee-Lo Green" transform="translate(0,292.6829268292683)"><text x="421" y="6.097560975609756" text-anchor="end" dominant-baseline="middle" style="font-family: Arial, sans-serif; font-size: 10px; fill: black; font-weight: normal;">Cee-Lo Green</text><rect x="425" y="0" width="450" height="12.195121951219512" fill="#ffffff"/><line x1="0" y1="0" x2="1000" y2="0" style="stroke: rgb(204, 204, 204);"/></g><g id="CEO Trayle" transform="translate(0,304.8780487804878)"><text x="771" y="6.097560975609756" text-anchor="end" dominant-baseline="middle" style="font-family: Arial, sans-serif; font-size: 10px; fill: black; font-weight: normal;">CEO Trayle</text><rect x="775" y="0" width="175" height="12.195121951219512" fill="#ffffff"/><line x1="0" y1="0" x2="1000" y2="0" style="stroke: rgb(204, 204, 204);"/></g><g id="Destroy Lonely" transform="translate(0,317.0731707317073)"><text x="796" y="6.097560975609756" text-anchor="end" dominant-baseline="middle" style="font-family: Arial, sans-serif; font-size: 10px; fill: black; font-weight: normal;">Destroy Lonely</text><rect x="800" y="0" width="150" height="12.195121951219512" fill="#ffffff"/><line x1="0" y1="0" x2="1000" y2="0" style="stroke: rgb(204, 204, 204);"/></g><g id="Digital Nas" transform="translate(0,329.2682926829268)"><text x="771" y="6.097560975609756" text-anchor="end" dominant-baseline="middle" style="font-family: Arial, sans-serif; font-size: 10px; fill: black; font-weight: normal;">Digital Nas</text><rect x="775" y="0" width="150" height="12.195121951219512" fill="#ffffff"/><line x1="0" y1="0" x2="1000" y2="0" style="stroke: rgb(204, 204, 204);"/></g><g id="Duwap Kaine" transform="translate(0,341.4634146341464)"><text x="671" y="6.097560975609756" text-anchor="end" dominant-baseline="middle" style="font-family: Arial, sans-serif; font-size: 10px; fill: black; font-weight: normal;">Duwap Kaine</text><rect x="675" y="0" width="275" height="12.195121951219512" fill="#ffffff"/><line x1="0" y1="0" x2="1000" y2="0" style="stroke: rgb(204, 204, 204);"/></g><g id="Future" transform="translate(0,353.6585365853659)"><text x="621" y="6.097560975609756" text-anchor="end" dominant-baseline="middle" style="font-family: Arial, sans-serif; font-size: 10px; fill: black; font-weight: normal;">Future</text><rect x="625" y="0" width="300" height="12.195121951219512" fill="#ffffff"/><line x1="0" y1="0" x2="1000" y2="0" style="stroke: rgb(204, 204, 204);"/></g><g id="Goodie Mob" transform="translate(0,365.8536585365854)"><text x="246" y="6.097560975609756" text-anchor="end" dominant-baseline="middle" style="font-family: Arial, sans-serif; font-size: 10px; fill: black; font-weight: normal;">Goodie Mob</text><rect x="250" y="0" width="625" height="12.195121951219512" fill="#ffffff"/><line x1="0" y1="0" x2="1000" y2="0" style="stroke: rgb(204, 204, 204);"/></g><g id="Guap Tarantino" transform="translate(0,378.0487804878049)"><text x="771" y="6.097560975609756" text-anchor="end" dominant-baseline="middle" style="font-family: Arial, sans-serif; font-size: 10px; fill: black; font-weight: normal;">Guap Tarantino</text><rect x="775" y="0" width="175" height="12.195121951219512" fill="#ffffff"/><line x1="0" y1="0" x2="1000" y2="0" style="stroke: rgb(204, 204, 204);"/></g><g id="Gucci Mane" transform="translate(0,390.2439024390244)"><text x="396" y="6.097560975609756" text-anchor="end" dominant-baseline="middle" style="font-family: Arial, sans-serif; font-size: 10px; fill: black; font-weight: normal;">Gucci Mane</text><rect x="400" y="0" width="550" height="12.195121951219512" fill="#ffffff"/><line x1="0" y1="0" x2="1000" y2="0" style="stroke: rgb(204, 204, 204);"/></g><g id="Gunna" transform="translate(0,402.4390243902439)"><text x="696" y="6.097560975609756" text-anchor="end" dominant-baseline="middle" style="font-family: Arial, sans-serif; font-size: 10px; fill: black; font-weight: normal;">Gunna</text><rect x="700" y="0" width="250" height="12.195121951219512" fill="#ffffff"/><line x1="0" y1="0" x2="1000" y2="0" style="stroke: rgb(204, 204, 204);"/></g><g id="Homixide Gang" transform="translate(0,414.6341463414634)"><text x="896" y="6.097560975609756" text-anchor="end" dominant-baseline="middle" style="font-family: Arial, sans-serif; font-size: 10px; fill: black; font-weight: normal;">Homixide Gang</text><rect x="900" y="0" width="50" height="12.195121951219512" fill="#ffffff"/><line x1="0" y1="0" x2="1000" y2="0" style="stroke: rgb(204, 204, 204);"/></g><g id="ILoveMakonnen" transform="translate(0,426.8292682926829)"><text x="696" y="6.097560975609756" text-anchor="end" dominant-baseline="middle" style="font-family: Arial, sans-serif; font-size: 10px; fill: black; font-weight: normal;">ILoveMakonnen</text><rect x="700" y="0" width="250" height="12.195121951219512" fill="#ffffff"/><line x1="0" y1="0" x2="1000" y2="0" style="stroke: rgb(204, 204, 204);"/></g><g id="Jeezy" transform="translate(0,439.0243902439024)"><text x="396" y="6.097560975609756" text-anchor="end" dominant-baseline="middle" style="font-family: Arial, sans-serif; font-size: 10px; fill: black; font-weight: normal;">Jeezy</text><rect x="400" y="0" width="525" height="12.195121951219512" fill="#ffffff"/><line x1="0" y1="0" x2="1000" y2="0" style="stroke: rgb(204, 204, 204);"/></g><g id="JiD" transform="translate(0,451.219512195122)"><text x="621" y="6.097560975609756" text-anchor="end" dominant-baseline="middle" style="font-family: Arial, sans-serif; font-size: 10px; fill: black; font-weight: normal;">JiD</text><rect x="625" y="0" width="325" height="12.195121951219512" fill="#ffffff"/><line x1="0" y1="0" x2="1000" y2="0" style="stroke: rgb(204, 204, 204);"/></g><g id="K$upreme" transform="translate(0,463.4146341463415)"><text x="771" y="6.097560975609756" text-anchor="end" dominant-baseline="middle" style="font-family: Arial, sans-serif; font-size: 10px; fill: black; font-weight: normal;">K$upreme</text><rect x="775" y="0" width="175" height="12.195121951219512" fill="#ffffff"/><line x1="0" y1="0" x2="1000" y2="0" style="stroke: rgb(204, 204, 204);"/></g><g id="Ken Carson" transform="translate(0,475.609756097561)"><text x="871" y="6.097560975609756" text-anchor="end" dominant-baseline="middle" style="font-family: Arial, sans-serif; font-size: 10px; fill: black; font-weight: normal;">Ken Carson</text><rect x="875" y="0" width="75" height="12.195121951219512" fill="#ffffff"/><line x1="0" y1="0" x2="1000" y2="0" style="stroke: rgb(204, 204, 204);"/></g><g id="Killer Mike" transform="translate(0,487.8048780487805)"><text x="446" y="6.097560975609756" text-anchor="end" dominant-baseline="middle" style="font-family: Arial, sans-serif; font-size: 10px; fill: black; font-weight: normal;">Killer Mike</text><rect x="450" y="0" width="500" height="12.195121951219512" fill="#ffffff"/><line x1="0" y1="0" x2="1000" y2="0" style="stroke: rgb(204, 204, 204);"/></g><g id="Latto" transform="translate(0,500)"><text x="771" y="6.097560975609756" text-anchor="end" dominant-baseline="middle" style="font-family: Arial, sans-serif; font-size: 10px; fill: black; font-weight: normal;">Latto</text><rect x="775" y="0" width="150" height="12.195121951219512" fill="#ffffff"/><line x1="0" y1="0" x2="1000" y2="0" style="stroke: rgb(204, 204, 204);"/></g><g id="Lil Baby" transform="translate(0,512.1951219512196)"><text x="796" y="6.097560975609756" text-anchor="end" dominant-baseline="middle" style="font-family: Arial, sans-serif; font-size: 10px; fill: black; font-weight: normal;">Lil Baby</text><rect x="800" y="0" width="125" height="12.195121951219512" fill="#ffffff"/><line x1="0" y1="0" x2="1000" y2="0" style="stroke: rgb(204, 204, 204);"/></g><g id="Lil Duke" transform="translate(0,524.390243902439)"><text x="796" y="6.097560975609756" text-anchor="end" dominant-baseline="middle" style="font-family: Arial, sans-serif; font-size: 10px; fill: black; font-weight: normal;">Lil Duke</text><rect x="800" y="0" width="100" height="12.195121951219512" fill="#ffffff"/><line x1="0" y1="0" x2="1000" y2="0" style="stroke: rgb(204, 204, 204);"/></g><g id="Lil Gnar" transform="translate(0,536.5853658536586)"><text x="821" y="6.097560975609756" text-anchor="end" dominant-baseline="middle" style="font-family: Arial, sans-serif; font-size: 10px; fill: black; font-weight: normal;">Lil Gnar</text><rect x="825" y="0" width="125" height="12.195121951219512" fill="#ffffff"/><line x1="0" y1="0" x2="1000" y2="0" style="stroke: rgb(204, 204, 204);"/></g><g id="Lil Gotit" transform="translate(0,548.780487804878)"><text x="821" y="6.097560975609756" text-anchor="end" dominant-baseline="middle" style="font-family: Arial, sans-serif; font-size: 10px; fill: black; font-weight: normal;">Lil Gotit</text><rect x="825" y="0" width="100" height="12.195121951219512" fill="#ffffff"/><line x1="0" y1="0" x2="1000" y2="0" style="stroke: rgb(204, 204, 204);"/></g><g id="Lil Jon" transform="translate(0,560.9756097560976)"><text x="521" y="6.097560975609756" text-anchor="end" dominant-baseline="middle" style="font-family: Arial, sans-serif; font-size: 10px; fill: black; font-weight: normal;">Lil Jon</text><rect x="525" y="0" width="250" height="12.195121951219512" fill="#ffffff"/><line x1="0" y1="0" x2="1000" y2="0" style="stroke: rgb(204, 204, 204);"/></g><g id="Lil Keed" transform="translate(0,573.170731707317)"><text x="821" y="6.097560975609756" text-anchor="end" dominant-baseline="middle" style="font-family: Arial, sans-serif; font-size: 10px; fill: black; font-weight: normal;">Lil Keed</text><rect x="825" y="0" width="125" height="12.195121951219512" fill="#ffffff"/><line x1="0" y1="0" x2="1000" y2="0" style="stroke: rgb(204, 204, 204);"/></g><g id="Lil Yachty" transform="translate(0,585.3658536585366)"><text x="746" y="6.097560975609756" text-anchor="end" dominant-baseline="middle" style="font-family: Arial, sans-serif; font-size: 10px; fill: black; font-weight: normal;">Lil Yachty</text><rect x="750" y="0" width="200" height="12.195121951219512" fill="#ffffff"/><line x1="0" y1="0" x2="1000" y2="0" style="stroke: rgb(204, 204, 204);"/></g><g id="Ludacris" transform="translate(0,597.5609756097562)"><text x="346" y="6.097560975609756" text-anchor="end" dominant-baseline="middle" style="font-family: Arial, sans-serif; font-size: 10px; fill: black; font-weight: normal;">Ludacris</text><rect x="350" y="0" width="400" height="12.195121951219512" fill="#ffffff"/><line x1="0" y1="0" x2="1000" y2="0" style="stroke: rgb(204, 204, 204);"/></g><g id="MadeinTYO" transform="translate(0,609.7560975609756)"><text x="771" y="6.097560975609756" text-anchor="end" dominant-baseline="middle" style="font-family: Arial, sans-serif; font-size: 10px; fill: black; font-weight: normal;">MadeinTYO</text><rect x="775" y="0" width="175" height="12.195121951219512" fill="#ffffff"/><line x1="0" y1="0" x2="1000" y2="0" style="stroke: rgb(204, 204, 204);"/></g><g id="Mango Foo" transform="translate(0,621.9512195121952)"><text x="771" y="6.097560975609756" text-anchor="end" dominant-baseline="middle" style="font-family: Arial, sans-serif; font-size: 10px; fill: black; font-weight: normal;">Mango Foo</text><rect x="775" y="0" width="150" height="12.195121951219512" fill="#ffffff"/><line x1="0" y1="0" x2="1000" y2="0" style="stroke: rgb(204, 204, 204);"/></g><g id="Marlo" transform="translate(0,634.1463414634146)"><text x="796" y="6.097560975609756" text-anchor="end" dominant-baseline="middle" style="font-family: Arial, sans-serif; font-size: 10px; fill: black; font-weight: normal;">Marlo</text><rect x="800" y="0" width="75" height="12.195121951219512" fill="#ffffff"/><line x1="0" y1="0" x2="1000" y2="0" style="stroke: rgb(204, 204, 204);"/></g><g id="MC Shy D" transform="translate(0,646.3414634146342)"><text x="46" y="6.097560975609756" text-anchor="end" dominant-baseline="middle" style="font-family: Arial, sans-serif; font-size: 10px; fill: black; font-weight: normal;">MC Shy D</text><rect x="50" y="0" width="25" height="12.195121951219512" fill="#ffffff"/><line x1="0" y1="0" x2="1000" y2="0" style="stroke: rgb(204, 204, 204);"/></g><g id="Metro Boomin" transform="translate(0,658.5365853658536)"><text x="696" y="6.097560975609756" text-anchor="end" dominant-baseline="middle" style="font-family: Arial, sans-serif; font-size: 10px; fill: black; font-weight: normal;">Metro Boomin</text><rect x="700" y="0" width="250" height="12.195121951219512" fill="#ffffff"/><line x1="0" y1="0" x2="1000" y2="0" style="stroke: rgb(204, 204, 204);"/></g><g id="MexikoDro" transform="translate(0,670.7317073170732)"><text x="821" y="6.097560975609756" text-anchor="end" dominant-baseline="middle" style="font-family: Arial, sans-serif; font-size: 10px; fill: black; font-weight: normal;">MexikoDro</text><rect x="825" y="0" width="125" height="12.195121951219512" fill="#ffffff"/><line x1="0" y1="0" x2="1000" y2="0" style="stroke: rgb(204, 204, 204);"/></g><g id="Migos" transform="translate(0,682.9268292682927)"><text x="646" y="6.097560975609756" text-anchor="end" dominant-baseline="middle" style="font-family: Arial, sans-serif; font-size: 10px; fill: black; font-weight: normal;">Migos</text><rect x="650" y="0" width="250" height="12.195121951219512" fill="#ffffff"/><line x1="0" y1="0" x2="1000" y2="0" style="stroke: rgb(204, 204, 204);"/></g><g id="Offset" transform="translate(0,695.1219512195122)"><text x="846" y="6.097560975609756" text-anchor="end" dominant-baseline="middle" style="font-family: Arial, sans-serif; font-size: 10px; fill: black; font-weight: normal;">Offset</text><rect x="850" y="0" width="100" height="12.195121951219512" fill="#ffffff"/><line x1="0" y1="0" x2="1000" y2="0" style="stroke: rgb(204, 204, 204);"/></g><g id="OJ da Juiceman" transform="translate(0,707.3170731707318)"><text x="571" y="6.097560975609756" text-anchor="end" dominant-baseline="middle" style="font-family: Arial, sans-serif; font-size: 10px; fill: black; font-weight: normal;">OJ da Juiceman</text><rect x="575" y="0" width="325" height="12.195121951219512" fill="#ffffff"/><line x1="0" y1="0" x2="1000" y2="0" style="stroke: rgb(204, 204, 204);"/></g><g id="Outkast" transform="translate(0,719.5121951219512)"><text x="221" y="6.097560975609756" text-anchor="end" dominant-baseline="middle" style="font-family: Arial, sans-serif; font-size: 10px; fill: black; font-weight: normal;">Outkast</text><rect x="225" y="0" width="225" height="12.195121951219512" fill="#ffffff"/><line x1="0" y1="0" x2="1000" y2="0" style="stroke: rgb(204, 204, 204);"/></g><g id="Peewee Longway" transform="translate(0,731.7073170731708)"><text x="696" y="6.097560975609756" text-anchor="end" dominant-baseline="middle" style="font-family: Arial, sans-serif; font-size: 10px; fill: black; font-weight: normal;">Peewee Longway</text><rect x="700" y="0" width="250" height="12.195121951219512" fill="#ffffff"/><line x1="0" y1="0" x2="1000" y2="0" style="stroke: rgb(204, 204, 204);"/></g><g id="Pi'erre Bourne" transform="translate(0,743.9024390243902)"><text x="621" y="6.097560975609756" text-anchor="end" dominant-baseline="middle" style="font-family: Arial, sans-serif; font-size: 10px; fill: black; font-weight: normal;">Pi'erre Bourne</text><rect x="625" y="0" width="325" height="12.195121951219512" fill="#ffffff"/><line x1="0" y1="0" x2="1000" y2="0" style="stroke: rgb(204, 204, 204);"/></g><g id="Playboi Carti" transform="translate(0,756.0975609756098)"><text x="771" y="6.097560975609756" text-anchor="end" dominant-baseline="middle" style="font-family: Arial, sans-serif; font-size: 10px; fill: black; font-weight: normal;">Playboi Carti</text><rect x="775" y="0" width="100" height="12.195121951219512" fill="#ffffff"/><line x1="0" y1="0" x2="1000" y2="0" style="stroke: rgb(204, 204, 204);"/></g><g id="Quavo" transform="translate(0,768.2926829268292)"><text x="796" y="6.097560975609756" text-anchor="end" dominant-baseline="middle" style="font-family: Arial, sans-serif; font-size: 10px; fill: black; font-weight: normal;">Quavo</text><rect x="800" y="0" width="150" height="12.195121951219512" fill="#ffffff"/><line x1="0" y1="0" x2="1000" y2="0" style="stroke: rgb(204, 204, 204);"/></g><g id="Rae Sremmurd" transform="translate(0,780.4878048780488)"><text x="746" y="6.097560975609756" text-anchor="end" dominant-baseline="middle" style="font-family: Arial, sans-serif; font-size: 10px; fill: black; font-weight: normal;">Rae Sremmurd</text><rect x="750" y="0" width="200" height="12.195121951219512" fill="#ffffff"/><line x1="0" y1="0" x2="1000" y2="0" style="stroke: rgb(204, 204, 204);"/></g><g id="Rich Homie Quan" transform="translate(0,792.6829268292684)"><text x="671" y="6.097560975609756" text-anchor="end" dominant-baseline="middle" style="font-family: Arial, sans-serif; font-size: 10px; fill: black; font-weight: normal;">Rich Homie Quan</text><rect x="675" y="0" width="250" height="12.195121951219512" fill="#ffffff"/><line x1="0" y1="0" x2="1000" y2="0" style="stroke: rgb(204, 204, 204);"/></g><g id="Rich the Kid" transform="translate(0,804.8780487804878)"><text x="621" y="6.097560975609756" text-anchor="end" dominant-baseline="middle" style="font-family: Arial, sans-serif; font-size: 10px; fill: black; font-weight: normal;">Rich the Kid</text><rect x="625" y="0" width="275" height="12.195121951219512" fill="#ffffff"/><line x1="0" y1="0" x2="1000" y2="0" style="stroke: rgb(204, 204, 204);"/></g><g id="SahBabii" transform="translate(0,817.0731707317074)"><text x="671" y="6.097560975609756" text-anchor="end" dominant-baseline="middle" style="font-family: Arial, sans-serif; font-size: 10px; fill: black; font-weight: normal;">SahBabii</text><rect x="675" y="0" width="250" height="12.195121951219512" fill="#ffffff"/><line x1="0" y1="0" x2="1000" y2="0" style="stroke: rgb(204, 204, 204);"/></g><g id="Slimesito" transform="translate(0,829.2682926829268)"><text x="796" y="6.097560975609756" text-anchor="end" dominant-baseline="middle" style="font-family: Arial, sans-serif; font-size: 10px; fill: black; font-weight: normal;">Slimesito</text><rect x="800" y="0" width="150" height="12.195121951219512" fill="#ffffff"/><line x1="0" y1="0" x2="1000" y2="0" style="stroke: rgb(204, 204, 204);"/></g><g id="Soulja Boy" transform="translate(0,841.4634146341464)"><text x="546" y="6.097560975609756" text-anchor="end" dominant-baseline="middle" style="font-family: Arial, sans-serif; font-size: 10px; fill: black; font-weight: normal;">Soulja Boy</text><rect x="550" y="0" width="400" height="12.195121951219512" fill="#ffffff"/><line x1="0" y1="0" x2="1000" y2="0" style="stroke: rgb(204, 204, 204);"/></g><g id="T.I." transform="translate(0,853.6585365853658)"><text x="396" y="6.097560975609756" text-anchor="end" dominant-baseline="middle" style="font-family: Arial, sans-serif; font-size: 10px; fill: black; font-weight: normal;">T.I.</text><rect x="400" y="0" width="550" height="12.195121951219512" fill="#ffffff"/><line x1="0" y1="0" x2="1000" y2="0" style="stroke: rgb(204, 204, 204);"/></g><g id="Takeoff" transform="translate(0,865.8536585365854)"><text x="821" y="6.097560975609756" text-anchor="end" dominant-baseline="middle" style="font-family: Arial, sans-serif; font-size: 10px; fill: black; font-weight: normal;">Takeoff</text><rect x="825" y="0" width="100" height="12.195121951219512" fill="#ffffff"/><line x1="0" y1="0" x2="1000" y2="0" style="stroke: rgb(204, 204, 204);"/></g><g id="Thouxanbanfauani" transform="translate(0,878.0487804878048)"><text x="746" y="6.097560975609756" text-anchor="end" dominant-baseline="middle" style="font-family: Arial, sans-serif; font-size: 10px; fill: black; font-weight: normal;">Thouxanbanfauani</text><rect x="750" y="0" width="200" height="12.195121951219512" fill="#ffffff"/><line x1="0" y1="0" x2="1000" y2="0" style="stroke: rgb(204, 204, 204);"/></g><g id="Tony Shhnow" transform="translate(0,890.2439024390244)"><text x="796" y="6.097560975609756" text-anchor="end" dominant-baseline="middle" style="font-family: Arial, sans-serif; font-size: 10px; fill: black; font-weight: normal;">Tony Shhnow</text><rect x="800" y="0" width="150" height="12.195121951219512" fill="#ffffff"/><line x1="0" y1="0" x2="1000" y2="0" style="stroke: rgb(204, 204, 204);"/></g><g id="UnoTheActivist" transform="translate(0,902.439024390244)"><text x="696" y="6.097560975609756" text-anchor="end" dominant-baseline="middle" style="font-family: Arial, sans-serif; font-size: 10px; fill: black; font-weight: normal;">UnoTheActivist</text><rect x="700" y="0" width="250" height="12.195121951219512" fill="#ffffff"/><line x1="0" y1="0" x2="1000" y2="0" style="stroke: rgb(204, 204, 204);"/></g><g id="Waka Flocka Flame" transform="translate(0,914.6341463414634)"><text x="596" y="6.097560975609756" text-anchor="end" dominant-baseline="middle" style="font-family: Arial, sans-serif; font-size: 10px; fill: black; font-weight: normal;">Waka Flocka Flame</text><rect x="600" y="0" width="275" height="12.195121951219512" fill="#ffffff"/><line x1="0" y1="0" x2="1000" y2="0" style="stroke: rgb(204, 204, 204);"/></g><g id="Warhol.SS" transform="translate(0,926.829268292683)"><text x="746" y="6.097560975609756" text-anchor="end" dominant-baseline="middle" style="font-family: Arial, sans-serif; font-size: 10px; fill: black; font-weight: normal;">Warhol.SS</text><rect x="750" y="0" width="200" height="12.195121951219512" fill="#ffffff"/><line x1="0" y1="0" x2="1000" y2="0" style="stroke: rgb(204, 204, 204);"/></g><g id="Yak Gotti" transform="translate(0,939.0243902439024)"><text x="746" y="6.097560975609756" text-anchor="end" dominant-baseline="middle" style="font-family: Arial, sans-serif; font-size: 10px; fill: black; font-weight: normal;">Yak Gotti</text><rect x="750" y="0" width="125" height="12.195121951219512" fill="#ffffff"/><line x1="0" y1="0" x2="1000" y2="0" style="stroke: rgb(204, 204, 204);"/></g><g id="Young Nudy" transform="translate(0,951.219512195122)"><text x="746" y="6.097560975609756" text-anchor="end" dominant-baseline="middle" style="font-family: Arial, sans-serif; font-size: 10px; fill: black; font-weight: normal;">Young Nudy</text><rect x="750" y="0" width="200" height="12.195121951219512" fill="#ffffff"/><line x1="0" y1="0" x2="1000" y2="0" style="stroke: rgb(204, 204, 204);"/></g><g id="Young Scooter" transform="translate(0,963.4146341463414)"><text x="646" y="6.097560975609756" text-anchor="end" dominant-baseline="middle" style="font-family: Arial, sans-serif; font-size: 10px; fill: black; font-weight: normal;">Young Scooter</text><rect x="650" y="0" width="300" height="12.195121951219512" fill="#ffffff"/><line x1="0" y1="0" x2="1000" y2="0" style="stroke: rgb(204, 204, 204);"/></g><g id="Young Thug" transform="translate(0,975.609756097561)"><text x="646" y="6.097560975609756" text-anchor="end" dominant-baseline="middle" style="font-family: Arial, sans-serif; font-size: 10px; fill: black; font-weight: normal;">Young Thug</text><rect x="650" y="0" width="300" height="12.195121951219512" fill="#ffffff"/><line x1="0" y1="0" x2="1000" y2="0" style="stroke: rgb(204, 204, 204);"/></g><g id="Yung Bans" transform="translate(0,987.8048780487806)"><text x="796" y="6.097560975609756" text-anchor="end" dominant-baseline="middle" style="font-family: Arial, sans-serif; font-size: 10px; fill: black; font-weight: normal;">Yung Bans</text><rect x="800" y="0" width="50" height="12.195121951219512" fill="#ffffff"/><line x1="0" y1="0" x2="1000" y2="0" style="stroke: rgb(204, 204, 204);"/></g></g></g></svg>